<?xml version="1.0" encoding="utf-8"?>
<svg xmlns="http://www.w3.org/2000/svg" height="512pt" version="1.1" viewBox="0 0 512 512" width="512pt">
<path d="M 0.00 0.00 L 512.00 0.00 L 512.00 512.00 L 0.00 512.00 L 0.00 0.00 Z" fill="transparent" opacity="1.00" stroke="transparent" stroke-width="0.25"/>
<path d="M 132.43 91.46 C 142.33 80.44 155.74 72.67 170.11 69.15 C 174.30 68.03 178.68 68.11 182.99 68.06 C 249.66 68.04 316.33 68.07 383.00 68.04 C 395.72 67.58 407.96 72.76 418.40 79.67 C 434.11 90.26 444.90 107.49 448.41 126.04 C 448.97 130.00 448.86 134.01 448.89 138.00 C 448.82 168.35 448.88 198.69 448.88 229.04 C 449.06 241.28 444.22 252.96 438.26 263.43 C 430.79 275.27 420.78 285.68 408.70 292.85 C 408.22 294.55 407.72 296.24 407.24 297.94 C 406.17 298.49 405.09 299.04 404.02 299.59 C 403.29 298.86 402.55 298.15 401.82 297.45 C 401.56 273.30 401.77 249.14 401.57 224.99 C 401.29 217.78 399.07 210.85 397.23 203.93 C 396.81 203.57 396.40 203.22 396.00 202.87 C 395.34 197.22 392.38 192.30 389.77 187.38 C 385.66 178.63 379.32 171.17 372.80 164.14 C 368.18 159.73 362.90 156.09 357.96 152.07 C 355.77 150.24 353.43 148.57 350.82 147.41 C 340.30 142.70 329.65 137.48 317.97 136.61 C 306.31 135.79 294.77 133.27 283.04 133.54 C 236.03 133.68 189.01 133.62 141.99 133.64 C 135.97 133.99 129.79 134.12 124.07 136.23 C 120.23 137.53 116.30 138.50 112.43 139.69 C 112.11 138.06 111.71 136.44 111.22 134.85 C 114.48 118.93 121.18 103.39 132.43 91.46 Z" fill="#1e9efa" opacity="1.00" stroke="#1e9efa" stroke-width="0.25"/>
<path d="M 124.07 136.23 C 129.79 134.12 135.97 133.99 141.99 133.64 C 189.01 133.62 236.03 133.68 283.04 133.54 C 294.77 133.27 306.31 135.79 317.97 136.61 C 329.65 137.48 340.30 142.70 350.82 147.41 C 353.43 148.57 355.77 150.24 357.96 152.07 C 343.54 144.70 328.42 137.64 312.00 136.61 C 303.94 136.32 296.00 134.62 287.95 134.40 C 239.95 134.55 191.95 134.50 143.96 134.46 C 138.47 134.84 132.93 135.23 127.56 136.41 C 122.66 138.02 117.75 139.61 112.66 140.49 C 112.41 140.93 111.90 141.80 111.65 142.24 C 111.22 141.88 110.79 141.53 110.36 141.18 C 110.35 139.04 110.35 136.85 111.22 134.85 C 111.71 136.44 112.11 138.06 112.43 139.69 C 116.30 138.50 120.23 137.53 124.07 136.23 Z" fill="#5cc3f9" opacity="1.00" stroke="#5cc3f9" stroke-width="0.25"/>
<path d="M 127.56 136.41 C 132.93 135.23 138.47 134.84 143.96 134.46 C 191.95 134.50 239.95 134.55 287.95 134.40 C 296.00 134.62 303.94 136.32 312.00 136.61 C 328.42 137.64 343.54 144.70 357.96 152.07 C 362.90 156.09 368.18 159.73 372.80 164.14 C 379.32 171.17 385.66 178.63 389.77 187.38 C 392.38 192.30 395.34 197.22 396.00 202.87 C 396.40 203.22 396.81 203.57 397.23 203.93 C 399.07 210.85 401.29 217.78 401.57 224.99 C 401.77 249.14 401.56 273.30 401.82 297.45 C 402.55 298.15 403.29 298.86 404.02 299.59 C 399.14 301.57 393.73 300.49 388.63 301.40 C 388.53 278.94 388.32 256.49 388.42 234.03 C 389.15 219.70 383.10 206.18 376.71 193.71 C 370.50 182.62 362.03 172.72 351.69 165.29 C 338.84 156.42 323.77 151.38 308.53 148.50 C 300.65 140.76 288.91 142.92 278.95 141.68 C 237.97 141.28 196.98 141.67 156.00 141.47 C 145.68 141.61 135.26 141.04 125.06 142.89 C 105.82 147.20 86.79 154.86 72.05 168.28 C 71.19 169.07 71.05 170.31 70.59 171.34 C 70.01 171.41 68.84 171.54 68.25 171.60 C 69.03 169.13 71.34 167.85 72.86 165.90 C 82.28 153.85 96.15 146.21 110.36 141.18 C 110.79 141.53 111.22 141.88 111.65 142.24 C 111.90 141.80 112.41 140.93 112.66 140.49 C 117.75 139.61 122.66 138.02 127.56 136.41 Z" fill="#928f91" opacity="1.00" stroke="#928f91" stroke-width="0.25"/>
<path d="M 142.01 148.68 C 197.52 148.47 253.03 148.88 308.53 148.50 C 323.77 151.38 338.84 156.42 351.69 165.29 C 362.03 172.72 370.50 182.62 376.71 193.71 C 383.10 206.18 389.15 219.70 388.42 234.03 C 388.32 256.49 388.53 278.94 388.63 301.40 C 388.73 304.47 388.45 307.57 387.42 310.48 C 385.25 320.46 380.81 329.73 375.70 338.51 C 368.52 350.14 357.76 358.87 346.88 366.85 C 330.15 378.38 310.24 385.06 290.00 386.40 C 270.84 386.62 251.68 386.19 232.53 386.55 C 229.33 389.71 225.70 392.38 222.10 395.07 C 217.90 398.21 214.31 402.18 209.65 404.66 C 206.53 406.31 202.56 404.58 199.61 406.61 C 192.55 411.91 185.62 417.36 179.00 423.22 C 169.48 430.62 161.43 440.04 150.63 445.72 C 148.59 446.62 146.31 446.62 144.12 446.68 C 138.74 447.22 134.09 443.32 131.74 438.81 C 128.65 430.97 132.50 422.84 133.81 415.05 C 135.57 405.04 138.84 395.29 139.84 385.16 C 124.19 382.67 108.94 377.59 94.94 370.19 C 76.26 360.33 60.70 344.62 51.45 325.60 C 49.10 320.73 47.22 315.46 47.40 309.98 C 47.44 278.66 47.53 247.34 47.43 216.02 C 47.03 204.33 53.55 193.65 61.71 185.78 C 71.34 176.54 82.02 168.32 93.74 161.89 C 103.76 156.19 114.91 152.97 125.92 149.83 C 131.27 149.33 136.67 149.33 142.01 148.68 Z" fill="#5cc3f9" opacity="1.00" stroke="#5cc3f9" stroke-width="0.25"/>
<path d="M 375.70 338.51 C 380.81 329.73 385.25 320.46 387.42 310.48 C 391.81 310.67 396.21 310.71 400.62 310.70 C 394.86 344.18 371.11 373.05 340.80 387.66 C 331.41 392.16 321.43 395.87 311.05 397.14 C 282.18 397.35 253.30 397.13 224.43 397.27 C 223.94 400.35 223.19 403.60 220.53 405.57 C 207.44 417.15 193.70 427.98 180.55 439.49 C 172.98 445.55 165.28 453.30 154.96 453.58 C 151.00 454.01 147.18 452.59 144.13 450.14 C 144.13 449.27 144.12 447.55 144.12 446.68 C 146.31 446.62 148.59 446.62 150.63 445.72 C 161.43 440.04 169.48 430.62 179.00 423.22 C 185.62 417.36 192.55 411.91 199.61 406.61 C 202.56 404.58 206.53 406.31 209.65 404.66 C 214.31 402.18 217.90 398.21 222.10 395.07 C 225.70 392.38 229.33 389.71 232.53 386.55 C 251.68 386.19 270.84 386.62 290.00 386.40 C 310.24 385.06 330.15 378.38 346.88 366.85 C 357.76 358.87 368.52 350.14 375.70 338.51 Z" fill="#928f91" opacity="1.00" stroke="#928f91" stroke-width="0.25"/>
</svg>